<!-- public/og.svg (1200×630) -->
<svg width="1200" height="630" viewBox="0 0 1200 630" xmlns="http://www.w3.org/2000/svg">
  <defs>
    <radialGradient id="g" cx="70%" cy="30%" r="80%">
      <stop offset="0%" stop-color="#1a2345"></stop>
      <stop offset="100%" stop-color="#0b1020"></stop>
    </radialGradient>
  </defs>
  <rect width="1200" height="630" fill="url(#g)"></rect>
  <!-- 로고 아이콘 -->
  <g transform="translate(80,80)">
    <rect x="0" y="0" width="72" height="72" rx="16" fill="#101935" stroke="#2a3a78"></rect>
    <path d="M20 24h32v6H20zM20 38h32v6H20zM20 52h24v6H20z" fill="#5b9cff"></path>
  </g>

  <!-- 텍스트 -->
  <g font-family="-apple-system, Segoe UI, Roboto, Inter, Noto Sans, Arial" fill="#eef2ff">
    <text x="80" y="200" font-size="64" font-weight="700">PDF Studio</text>
    <text x="80" y="260" font-size="34" fill="#c7d2fe">Merge · Compress · Table Extract</text>
    <text x="80" y="320" font-size="26" fill="#9aa5d1">Private. Free. In your browser.</text>
  </g>

  <!-- 우측 하이라이트 카드 -->
  <g transform="translate(760,120)">
    <rect x="0" y="0" width="360" height="360" rx="28" fill="#0f1733" stroke="#26356b"></rect>
    <g transform="translate(40,48)" fill="#b0c4ff">
      <circle cx="18" cy="18" r="6" fill="#5b9cff"></circle>
      <text x="40" y="24" font-size="24">Local processing</text>
      <circle cx="18" cy="78" r="6" fill="#5b9cff"></circle>
      <text x="40" y="84" font-size="24">No uploads</text>
      <circle cx="18" cy="138" r="6" fill="#5b9cff"></circle>
      <text x="40" y="144" font-size="24">Fast &amp; free</text>
    </g>
  </g>

  <!-- 도메인 -->
  <text x="80" y="560" font-size="24" fill="#9aa5d1">securepdftool.com</text>
</svg>
